<?xml version="1.0" encoding="UTF-8" standalone="no"?>
<svg
   width="1536"
   height="1536"
   version="1.1"
   id="svg1"
   sodipodi:docname="eye-slash.svg"
   inkscape:version="1.3.2 (1:1.3.2+202311252150+091e20ef0f)"
   xmlns:inkscape="http://www.inkscape.org/namespaces/inkscape"
   xmlns:sodipodi="http://sodipodi.sourceforge.net/DTD/sodipodi-0.dtd"
   xmlns="http://www.w3.org/2000/svg"
   xmlns:svg="http://www.w3.org/2000/svg">
  <defs
     id="defs1" />
  <sodipodi:namedview
     id="namedview1"
     pagecolor="#505050"
     bordercolor="#ffffff"
     borderopacity="1"
     inkscape:showpageshadow="0"
     inkscape:pageopacity="0"
     inkscape:pagecheckerboard="1"
     inkscape:deskcolor="#d1d1d1"
     inkscape:zoom="0.29877103"
     inkscape:cx="838.43471"
     inkscape:cy="937.17253"
     inkscape:window-width="1887"
     inkscape:window-height="1056"
     inkscape:window-x="33"
     inkscape:window-y="0"
     inkscape:window-maximized="1"
     inkscape:current-layer="svg1" />
  <path
     d="M 473.03155,1087.6159 539.51166,967.4403 C 440.64381,895.84638 381.83448,780.78465 381.83448,658.90445 c 0,-67.33242 17.89849,-133.81253 51.99085,-191.76955 -132.96022,68.18473 -243.7604,175.57568 -324.72976,300.86512 88.64014,137.22176 213.92958,252.28348 363.93598,319.61588 z M 804.57979,440.71332 c 0,-22.16003 -18.7508,-40.91084 -40.91083,-40.91084 -142.33562,0 -259.10197,116.76635 -259.10197,259.10197 0,22.16004 18.7508,40.91084 40.91084,40.91084 22.16003,0 40.91083,-18.7508 40.91083,-40.91084 0,-98.01554 80.11706,-177.28029 177.2803,-177.28029 22.16003,0 40.91083,-18.7508 40.91083,-40.91084 z M 1113.968,277.92228 c 0,1.70462 0,5.96617 -0.8523,7.67078 C 933.27847,606.9136 755.14587,929.9387 575.30864,1251.2593 l -41.76314,75.8555 c -5.11386,8.5231 -14.48926,13.6369 -23.86466,13.6369 -15.34156,0 -96.31093,-49.4339 -114.20942,-59.6616 -8.52309,-5.1139 -13.63694,-13.6369 -13.63694,-23.8647 0,-13.6369 28.97851,-59.6616 37.5016,-74.1508 C 253.98811,1108.0713 115.06173,980.225 17.046182,826.80935 5.9661637,809.76316 0,789.30774 0,768.00002 0,747.5446 5.9661637,726.23687 17.046182,709.19069 185.80338,450.08872 449.1669,277.06997 763.66896,277.06997 c 51.13854,0 103.1294,5.11386 153.41563,14.48926 l 46.0247,-82.67398 c 5.11385,-8.5231 13.63694,-13.63695 23.86465,-13.63695 15.34156,0 95.45866,49.43393 113.35716,59.66164 8.523,5.11385 13.6369,13.63694 13.6369,23.01234 z m 31.5354,380.98217 c 0,158.5295 -98.0155,300.01285 -245.46499,356.26525 L 1138.685,587.31049 c 4.2615,23.86465 6.8184,47.72931 6.8184,71.59396 z m 381.8345,109.09557 c 0,22.16003 -5.9662,40.05853 -17.0462,58.80933 -26.4216,43.46776 -59.6616,85.23095 -92.9017,123.58485 -167.0525,191.7695 -397.176,308.5359 -653.72104,308.5359 l 63.07087,-112.5048 C 1074.7618,1125.1175 1285.2821,974.2588 1418.2423,768.00002 1355.1715,669.98447 1274.2021,583.90125 1177.8912,517.42114 l 53.6955,-95.45862 c 105.6863,70.74166 212.2249,177.28029 278.705,287.22817 11.08,18.7508 17.0462,36.64929 17.0462,58.80933 z"
     id="path1"
     style="stroke-width:0.852309" />
</svg>
