<?xml version="1.0" encoding="UTF-8" standalone="no"?>
<svg
   width="1536"
   height="1536"
   version="1.1"
   id="svg4"
   sodipodi:docname="eye.svg"
   inkscape:version="1.2.2 (1:1.2.2+202212051550+b0a8486541)"
   xmlns:inkscape="http://www.inkscape.org/namespaces/inkscape"
   xmlns:sodipodi="http://sodipodi.sourceforge.net/DTD/sodipodi-0.dtd"
   xmlns="http://www.w3.org/2000/svg"
   xmlns:svg="http://www.w3.org/2000/svg">
  <defs
     id="defs8" />
  <sodipodi:namedview
     id="namedview6"
     pagecolor="#505050"
     bordercolor="#ffffff"
     borderopacity="1"
     inkscape:showpageshadow="0"
     inkscape:pageopacity="0"
     inkscape:pagecheckerboard="1"
     inkscape:deskcolor="#505050"
     showgrid="false"
     inkscape:zoom="0.40373219"
     inkscape:cx="999.42489"
     inkscape:cy="1140.6076"
     inkscape:window-width="1887"
     inkscape:window-height="1056"
     inkscape:window-x="33"
     inkscape:window-y="0"
     inkscape:window-maximized="1"
     inkscape:current-layer="svg4" />
  <path
     d="m 1427.7828,768.00001 c -81.514,-126.13226 -193.0596,-234.24562 -326.9142,-302.88902 34.3217,58.34689 52.3406,125.27421 52.3406,193.05957 0,211.93651 -172.46657,384.40304 -384.40308,384.40304 -211.93651,0 -384.40306,-172.46653 -384.40306,-384.40304 0,-67.78536 18.01889,-134.71268 52.34059,-193.05957 -133.85463,68.6434 -245.40016,176.75676 -326.9142,302.88902 146.72527,226.52319 383.54501,384.40309 658.97667,384.40309 275.43168,0 512.25138,-157.8799 658.97668,-384.40309 z M 809.99216,438.51167 c 0,-22.30911 -18.87693,-41.18604 -41.18604,-41.18604 -143.29311,0 -260.84493,117.55182 -260.84493,260.84493 0,22.30911 18.87693,41.18604 41.18604,41.18604 22.3091,0 41.18604,-18.87693 41.18604,-41.18604 0,-97.81685 80.656,-178.47285 178.47285,-178.47285 22.30911,0 41.18604,-18.87694 41.18604,-41.18604 z m 727.62004,329.48834 c 0,21.45106 -6.8643,41.18604 -17.1608,59.20493 -157.8798,259.98686 -447.0402,435.02756 -751.64528,435.02756 -304.6051,0 -593.76544,-175.8987 -751.645269,-435.02756 C 6.8643403,809.18605 0,789.45107 0,768.00001 0,746.54894 6.8643403,726.81396 17.160851,708.79507 175.04068,449.66622 464.20102,273.7675 768.80612,273.7675 c 304.60508,0 593.76548,175.89872 751.64528,435.02757 10.2965,18.01889 17.1608,37.75387 17.1608,59.20494 z"
     id="path2"
     style="stroke-width:0.858043" />
</svg>
