<?xml version="1.0" encoding="UTF-8" standalone="no"?>
<svg
   width="1536"
   height="1796"
   viewBox="0 0 1536 1796"
   version="1.1"
   id="svg4"
   sodipodi:docname="hubzilla.svg"
   inkscape:version="1.2.2 (1:1.2.2+202305151915+b0a8486541)"
   xmlns:inkscape="http://www.inkscape.org/namespaces/inkscape"
   xmlns:sodipodi="http://sodipodi.sourceforge.net/DTD/sodipodi-0.dtd"
   xmlns="http://www.w3.org/2000/svg"
   xmlns:svg="http://www.w3.org/2000/svg">
  <defs
     id="defs8" />
  <sodipodi:namedview
     id="namedview6"
     pagecolor="#505050"
     bordercolor="#ffffff"
     borderopacity="1"
     inkscape:showpageshadow="0"
     inkscape:pageopacity="0"
     inkscape:pagecheckerboard="1"
     inkscape:deskcolor="#505050"
     showgrid="false"
     inkscape:zoom="0.34528544"
     inkscape:cx="612.53669"
     inkscape:cy="980.34832"
     inkscape:window-width="1887"
     inkscape:window-height="1056"
     inkscape:window-x="33"
     inkscape:window-y="0"
     inkscape:window-maximized="1"
     inkscape:current-layer="svg4" />
  <path
     d="m 1302.5002,201.86483 c 83.0148,40.98104 159.6391,119.78008 199.6328,204.90328 15.8113,38.08142 32.4139,75.63696 28.9884,164.05491 -2.964,79.72103 -8.5652,111.08125 -33.4042,163.92127 -65.7507,140.33501 -195.1497,234.15704 -342.9309,243.77498 l -79.8537,5.40313 -28.0011,111.0812 c -23.5208,92.5039 -25.6955,123.6017 -25.6955,123.6017 26.6839,28.3308 87.2988,45.8554 112.6637,111.4774 34.5896,66.8737 30.6373,161.8148 -13.5722,216.7622 -72.3422,89.6034 -180.19506,116.4854 -275.13616,66.9401 -86.30958,-45.3295 -131.57273,-157.4664 -104.62539,-255.6359 6.45683,-24.838 -1.05563,-32.4139 -104.62538,-100.3423 l -112.20322,-74.4496 -40.98104,33.4695 C 287.53827,1373.2384 1.5977944,1235.1416 2.7178365,983.85606 c 0,-161.81483 128.4750635,-287.9181 293.3865935,-286.92977 83.01482,0 132.69182,18.31677 194.16338,74.45155 l 45.26315,40.97912 100.34231,-50.73069 101.46331,-49.61258 -10.80433,-35.57792 C 711.37851,623.5967 714.67231,506.05767 732.98908,446.69448 753.54497,375.53864 817.18932,287.05532 877.60717,242.84683 1000.6147,152.12247 1168.8191,135.91406 1302.5656,201.79945 Z m -741.20827,914.48687 224.86598,154.5658 c 0,0 68.25719,-57.5172 160.7592,-65.6209 l 57.58459,-244.43361 c 0,0 -177.88961,-57.58458 -228.29245,-182.50243 l -208.39512,98.82808 c 0,0 49.28184,123.07296 -6.45683,239.03036 z"
     id="path2"
     style="stroke-width:0.96141" />
</svg>
