<?xml version="1.0" encoding="UTF-8" standalone="no"?>
<svg
   width="1536"
   height="1536"
   version="1.1"
   id="svg4"
   sodipodi:docname="link.svg"
   inkscape:version="1.2.2 (1:1.2.2+202212051550+b0a8486541)"
   xmlns:inkscape="http://www.inkscape.org/namespaces/inkscape"
   xmlns:sodipodi="http://sodipodi.sourceforge.net/DTD/sodipodi-0.dtd"
   xmlns="http://www.w3.org/2000/svg"
   xmlns:svg="http://www.w3.org/2000/svg">
  <defs
     id="defs8" />
  <sodipodi:namedview
     id="namedview6"
     pagecolor="#505050"
     bordercolor="#ffffff"
     borderopacity="1"
     inkscape:showpageshadow="0"
     inkscape:pageopacity="0"
     inkscape:pagecheckerboard="1"
     inkscape:deskcolor="#505050"
     showgrid="false"
     inkscape:zoom="0.28548177"
     inkscape:cx="681.30445"
     inkscape:cy="958.02965"
     inkscape:window-width="1887"
     inkscape:window-height="1056"
     inkscape:window-x="33"
     inkscape:window-y="0"
     inkscape:window-maximized="1"
     inkscape:current-layer="svg4" />
  <path
     d="m 1347.411,1125.5091 c 0,-24.0393 -9.2459,-46.2295 -25.8886,-62.8721 L 1129.2075,870.32204 c -16.6426,-16.64263 -39.7574,-25.88854 -62.8722,-25.88854 -26.8131,0 -48.0787,10.1705 -66.57052,29.58691 30.51152,30.5115 66.57052,56.40005 66.57052,103.55418 0,49.00331 -39.7574,88.76071 -88.76071,88.76071 -47.15413,0 -73.04268,-36.059 -103.55418,-66.57052 -19.41641,18.49182 -30.5115,39.75742 -30.5115,67.49512 0,23.1148 9.24591,46.2296 25.88854,62.8722 l 190.46575,191.3903 c 16.6426,16.6427 39.7574,24.964 62.8722,24.964 23.1147,0 46.2295,-8.3213 62.8722,-24.0394 l 135.9148,-134.9903 c 16.6427,-16.6426 25.8886,-38.8328 25.8886,-61.9476 z M 697.42353,473.67252 c 0,-23.11477 -9.2459,-46.22954 -25.88854,-62.87218 L 481.06925,219.41001 c -16.64264,-16.64264 -39.75741,-25.88855 -62.87218,-25.88855 -23.11478,0 -46.22955,9.24591 -62.87219,24.96396 L 219.41001,353.4757 c -16.64264,16.64264 -25.88855,38.83282 -25.88855,61.94759 0,24.03937 9.24591,46.22955 25.88855,62.87219 L 411.72493,670.6104 c 16.64264,16.64263 39.75741,24.96395 62.87218,24.96395 26.81314,0 48.07873,-9.24591 66.57055,-28.66232 -30.5115,-30.5115 -66.57055,-56.40005 -66.57055,-103.55418 0,-49.00332 39.75742,-88.76074 88.76074,-88.76074 47.15413,0 73.04268,36.05905 103.55418,66.57055 19.41641,-18.49182 30.5115,-39.75741 30.5115,-67.49514 z m 827.50887,651.83658 c 0,70.269 -28.6623,138.6887 -78.5902,187.692 l -135.9149,134.9903 c -49.9279,49.9279 -117.423,76.741 -187.6919,76.741 -71.1935,0 -138.68867,-27.7377 -188.61658,-78.5902 L 743.65308,1254.9519 c -49.92791,-49.9279 -76.74105,-117.4231 -76.74105,-187.692 0,-73.04267 29.58691,-142.38699 81.36401,-193.23949 L 666.91203,792.6564 c -50.8525,51.7771 -119.27223,81.36401 -192.31492,81.36401 -70.26891,0 -138.68864,-27.73773 -188.61655,-77.66564 L 93.66564,604.03985 C 42.813138,553.18735 16,486.6168 16,415.42329 16,345.15438 44.66232,276.73465 94.590231,227.73133 L 230.5051,92.741049 C 280.43301,42.813138 347.92815,16 418.19707,16 c 71.1935,0 138.68864,27.737729 188.61655,78.590231 L 797.27936,285.98056 c 49.92791,49.92791 76.74105,117.42305 76.74105,187.69196 0,73.04269 -29.58691,142.38701 -81.36401,193.23951 l 81.36401,81.36401 c 50.8525,-51.7771 119.27223,-81.36401 192.31489,-81.36401 70.2689,0 138.6887,27.73773 188.6166,77.66564 l 192.3149,192.31492 c 50.8525,50.8525 77.6656,117.42301 77.6656,188.61651 z"
     id="path2"
     style="stroke-width:0.924591" />
</svg>
