<?xml version="1.0" encoding="UTF-8" standalone="no"?>
<svg
   width="1536"
   height="1536"
   version="1.1"
   id="svg1"
   sodipodi:docname="magic.svg"
   inkscape:version="1.3.2 (1:1.3.2+202311252150+091e20ef0f)"
   xmlns:inkscape="http://www.inkscape.org/namespaces/inkscape"
   xmlns:sodipodi="http://sodipodi.sourceforge.net/DTD/sodipodi-0.dtd"
   xmlns="http://www.w3.org/2000/svg"
   xmlns:svg="http://www.w3.org/2000/svg">
  <defs
     id="defs1" />
  <sodipodi:namedview
     id="namedview1"
     pagecolor="#505050"
     bordercolor="#ffffff"
     borderopacity="1"
     inkscape:showpageshadow="0"
     inkscape:pageopacity="0"
     inkscape:pagecheckerboard="1"
     inkscape:deskcolor="#d1d1d1"
     inkscape:zoom="0.14938551"
     inkscape:cx="-398.29832"
     inkscape:cy="294.53994"
     inkscape:window-width="1887"
     inkscape:window-height="1056"
     inkscape:window-x="33"
     inkscape:window-y="0"
     inkscape:window-maximized="1"
     inkscape:current-layer="svg1" />
  <path
     d="M 1083.2957,550.63354 1351.4572,282.472 1253.528,184.5427 985.36641,452.70424 Z M 1492.4022,282.472 c 0,15.55886 -5.4913,30.2025 -16.4741,41.18522 L 298.94609,1500.6393 c -10.98272,10.9827 -25.62636,16.4741 -41.18522,16.4741 -15.55886,0 -30.20249,-5.4914 -41.18522,-16.4741 L 35.360688,1319.4243 C 24.377963,1308.4416 18.8866,1293.7979 18.8866,1278.2391 c 0,-15.5589 5.491363,-30.2025 16.474088,-41.1852 L 1212.3427,60.071819 c 10.9828,-10.982725 25.6264,-16.474087 41.1853,-16.474087 15.5588,0 30.2024,5.491362 41.1852,16.474087 l 181.2149,181.214961 c 10.9828,10.98273 16.4741,25.62636 16.4741,41.18522 z M 255.93042,108.57886 345.62267,136.03567 255.93042,163.49248 228.4736,253.18474 201.01679,163.49248 111.32454,136.03567 201.01679,108.57886 228.4736,18.8866 Z M 576.2599,256.84564 755.64441,311.75927 576.2599,366.6729 521.34627,546.05741 466.43265,366.6729 287.04814,311.75927 466.43265,256.84564 521.34627,77.461134 Z m 851.1612,437.47856 89.6923,27.45681 -89.6923,27.45681 -27.4568,89.69226 -27.4568,-89.69226 -89.6923,-27.45681 89.6923,-27.45681 27.4568,-89.69226 z m -585.74534,-585.74534 89.69225,27.45681 -89.69225,27.45681 -27.45682,89.69226 -27.45681,-89.69226 -89.69225,-27.45681 89.69225,-27.45681 27.45681,-89.69226 z"
     id="path1"
     style="stroke-width:0.915227" />
</svg>
