<?xml version="1.0" encoding="UTF-8" standalone="no"?>
<svg
   width="1536"
   height="1536"
   version="1.1"
   id="svg1"
   sodipodi:docname="map-marker.svg"
   inkscape:version="1.3.2 (1:1.3.2+202311252150+091e20ef0f)"
   xmlns:inkscape="http://www.inkscape.org/namespaces/inkscape"
   xmlns:sodipodi="http://sodipodi.sourceforge.net/DTD/sodipodi-0.dtd"
   xmlns="http://www.w3.org/2000/svg"
   xmlns:svg="http://www.w3.org/2000/svg">
  <defs
     id="defs1" />
  <sodipodi:namedview
     id="namedview1"
     pagecolor="#505050"
     bordercolor="#ffffff"
     borderopacity="1"
     inkscape:showpageshadow="0"
     inkscape:pageopacity="0"
     inkscape:pagecheckerboard="1"
     inkscape:deskcolor="#d1d1d1"
     inkscape:zoom="0.42252604"
     inkscape:cx="768"
     inkscape:cy="766.81664"
     inkscape:window-width="1887"
     inkscape:window-height="1056"
     inkscape:window-x="33"
     inkscape:window-y="0"
     inkscape:window-maximized="1"
     inkscape:current-layer="svg1" />
  <path
     d="M 1024,512 C 1024,371 909,256 768,256 627,256 512,371 512,512 c 0,141 115,256 256,256 141,0 256,-115 256,-256 z m 256,0 c 0,61 -7,124 -33,179 l -364,774 c -21,44 -67,71 -115,71 -48,0 -94,-27 -114,-71 L 289,691 C 263,636 256,573 256,512 256,229 485,0 768,0 c 283,0 512,229 512,512 z"
     id="path1" />
</svg>
