<?xml version="1.0" encoding="UTF-8" standalone="no"?>
<svg
   width="1536"
   height="1536"
   version="1.1"
   id="svg4"
   sodipodi:docname="pencil-square-o.svg"
   inkscape:version="1.2.2 (1:1.2.2+202212051550+b0a8486541)"
   xmlns:inkscape="http://www.inkscape.org/namespaces/inkscape"
   xmlns:sodipodi="http://sodipodi.sourceforge.net/DTD/sodipodi-0.dtd"
   xmlns="http://www.w3.org/2000/svg"
   xmlns:svg="http://www.w3.org/2000/svg">
  <defs
     id="defs8" />
  <sodipodi:namedview
     id="namedview6"
     pagecolor="#505050"
     bordercolor="#ffffff"
     borderopacity="1"
     inkscape:showpageshadow="0"
     inkscape:pageopacity="0"
     inkscape:pagecheckerboard="1"
     inkscape:deskcolor="#505050"
     showgrid="false"
     inkscape:zoom="0.28548177"
     inkscape:cx="639.27024"
     inkscape:cy="1003.5667"
     inkscape:window-width="1887"
     inkscape:window-height="1056"
     inkscape:window-x="33"
     inkscape:window-y="0"
     inkscape:window-maximized="1"
     inkscape:current-layer="svg4" />
  <path
     d="M 762.2143,1070.139 861.78284,970.57048 731.31372,840.10136 631.74519,939.6699 v 48.06756 h 82.40155 v 82.40154 z m 377.6738,-618.01159 c -7.7252,-7.72514 -20.6004,-6.86679 -28.3256,0.85835 L 811.14022,753.40807 c -7.72514,7.72514 -8.58349,20.60038 -0.85835,28.32553 7.72515,7.72514 20.60039,6.86679 28.32554,-0.85835 L 1139.0297,480.45294 c 7.7252,-7.72514 8.5835,-20.60038 0.8584,-28.32553 z m 68.6679,509.85957 v 163.08642 c 0,136.4775 -110.7271,247.2046 -247.20462,247.2046 H 247.20464 C 110.72708,1372.278 0,1261.5509 0,1125.0734 V 410.92664 C 0,274.44908 110.72708,163.722 247.20464,163.722 h 714.14674 c 34.33397,0 68.66792,6.8668 100.42692,21.45874 7.7251,3.43339 13.7336,11.15854 15.4503,19.74203 1.7166,9.44185 -0.8584,18.02534 -7.7252,24.89214 l -42.0591,42.05912 c -7.7252,7.72514 -18.0254,10.30019 -27.4672,6.8668 -12.87524,-3.4334 -25.75048,-5.1501 -38.62572,-5.1501 H 247.20464 c -75.53475,0 -137.33591,61.80116 -137.33591,137.33591 v 714.14676 c 0,75.5347 61.80116,137.3359 137.33591,137.3359 h 714.14674 c 75.53472,0 137.33592,-61.8012 137.33592,-137.3359 v -108.1521 c 0,-6.8668 2.575,-13.7336 7.7251,-18.88364 l 54.9344,-54.93437 c 8.5835,-8.58349 19.742,-10.30019 30.0422,-6.00844 10.3002,4.29174 17.167,13.73359 17.167,24.89213 z M 1126.1545,328.52509 1373.3591,575.72973 796.54828,1152.5406 H 549.34364 V 905.33592 Z m 381.1071,113.30213 -78.9681,78.96815 -247.2047,-247.20464 78.9682,-78.96815 c 31.7589,-31.75893 84.9766,-31.75893 116.7355,0 l 130.4691,130.46912 c 31.759,31.75892 31.759,84.97659 0,116.73552 z"
     id="path2"
     style="stroke-width:0.858349" />
</svg>
