<?xml version="1.0" encoding="UTF-8" standalone="no"?>
<svg
   width="1536"
   height="1536"
   version="1.1"
   id="svg1"
   sodipodi:docname="selection-add.svg"
   inkscape:version="1.3.2 (1:1.3.2+202311252150+091e20ef0f)"
   xmlns:inkscape="http://www.inkscape.org/namespaces/inkscape"
   xmlns:sodipodi="http://sodipodi.sourceforge.net/DTD/sodipodi-0.dtd"
   xmlns="http://www.w3.org/2000/svg"
   xmlns:svg="http://www.w3.org/2000/svg">
  <defs
     id="defs1" />
  <sodipodi:namedview
     id="namedview1"
     pagecolor="#505050"
     bordercolor="#ffffff"
     borderopacity="1"
     inkscape:showpageshadow="0"
     inkscape:pageopacity="0"
     inkscape:pagecheckerboard="1"
     inkscape:deskcolor="#d1d1d1"
     inkscape:zoom="0.29877103"
     inkscape:cx="684.47065"
     inkscape:cy="1111.2188"
     inkscape:window-width="1887"
     inkscape:window-height="1056"
     inkscape:window-x="33"
     inkscape:window-y="0"
     inkscape:window-maximized="1"
     inkscape:current-layer="svg1" />
  <path
     id="path6"
     style="color:#000000;fill:#000000;stroke-width:1.26037;stroke-dasharray:252.075, 252.075;-inkscape-stroke:none;paint-order:stroke markers fill"
     d="M 220.57031 168.0293 L 220.57031 268.0293 L 420.57031 268.0293 L 420.57031 168.0293 L 220.57031 168.0293 z M 620.57031 168.0293 L 620.57031 268.0293 L 820.57031 268.0293 L 820.57031 168.0293 L 620.57031 168.0293 z M 1020.5703 168.0293 L 1020.5703 268.0293 L 1220.5703 268.0293 L 1220.5703 168.0293 L 1020.5703 168.0293 z M 1443.1191 209.42773 C 1443.1206 209.42881 1443.1216 209.43057 1443.123 209.43164 L 1443.125 209.42773 L 1443.1191 209.42773 z M 1443.123 209.43164 L 1384.5117 290.44922 C 1397.3714 299.75232 1408.4881 311.88827 1416.623 325.50391 L 1416.6367 325.52539 L 1416.6484 325.54688 C 1423.7903 337.47341 1428.8376 350.86576 1431.3496 364.55078 L 1431.3496 364.56641 L 1431.3496 364.58203 C 1432.6673 371.73445 1433.3327 379.07841 1433.332 386.44336 L 1433.332 386.44727 L 1433.332 427.38672 L 1533.332 427.38672 L 1533.332 386.45508 L 1533.332 386.44922 C 1533.333 373.09218 1532.1332 359.7102 1529.6973 346.48242 C 1525.0103 320.95726 1515.7801 296.45441 1502.4414 274.17773 C 1487.2706 248.79725 1467.0703 226.75683 1443.123 209.43164 z M 33.068359 274.13086 C 25.552065 286.6853 19.318904 299.97206 14.470703 313.78711 C 14.468603 313.79311 14.466944 313.79879 14.464844 313.80469 C 14.463444 313.80869 14.462337 313.81271 14.460938 313.81641 C 6.2273065 337.25238 2.1353531 361.84618 2.1503906 386.48047 L 2.1503906 495.49609 L 102.15039 495.49609 L 102.15039 386.43359 L 102.15039 386.41797 C 102.14239 372.96342 104.41657 359.45395 108.8125 346.94727 L 108.81836 346.93164 L 108.82422 346.91797 C 111.43374 339.47871 114.81318 332.26944 118.86719 325.49805 L 33.068359 274.13086 z M 651.83203 373.33398 L 651.83203 656.30273 L 396.41797 656.30273 L 396.41797 871.50586 L 651.83203 871.50586 L 651.83203 1162.666 L 886.40039 1162.666 L 886.40039 871.50586 L 1139.582 871.50586 L 1139.582 656.30273 L 886.40039 656.30273 L 886.40039 373.33398 L 651.83203 373.33398 z M 1433.3379 627.38672 L 1433.3379 827.38672 L 1533.3379 827.38672 L 1533.3379 627.38672 L 1433.3379 627.38672 z M 2.1503906 695.49609 L 2.1503906 895.49609 L 102.15039 895.49609 L 102.15039 695.49609 L 2.1503906 695.49609 z M 1433.3379 1027.3867 L 1433.3379 1149.5664 L 1433.3379 1149.582 C 1433.3479 1163.0366 1431.0698 1176.546 1426.6738 1189.0527 L 1426.6738 1189.0664 L 1426.6738 1189.0781 C 1425.073 1193.6404 1423.1875 1198.1048 1421.041 1202.4238 L 1510.5918 1246.9316 C 1514.5782 1238.9106 1518.0607 1230.6549 1521.0234 1222.2148 C 1529.2639 1198.7701 1533.3607 1174.1641 1533.3457 1149.5195 L 1533.3457 1027.3867 L 1433.3379 1027.3867 z M 2.1503906 1095.4961 L 2.1503906 1149.5508 C 2.1502132 1158.35 2.6687969 1167.1663 3.7226562 1175.9492 C 3.7231274 1175.9492 3.7241394 1175.9589 3.7246094 1175.9609 C 6.7155896 1200.9745 14.024992 1225.3343 25.384766 1247.8945 C 25.387366 1247.9045 25.389978 1247.9042 25.392578 1247.9102 C 38.508068 1274.002 56.756504 1297.1851 78.982422 1316.0664 L 143.72656 1239.8535 C 131.78368 1229.7078 121.75435 1216.9586 114.73438 1202.9902 L 114.72461 1202.9688 L 114.71289 1202.9473 C 108.63346 1190.8806 104.62566 1177.5545 103.01562 1164.0742 L 103.01367 1164.0586 L 103.01172 1164.043 C 102.43773 1159.2614 102.15025 1154.4151 102.15039 1149.5527 L 102.15039 1095.498 L 2.1503906 1095.4961 z M 301.79883 1267.9707 L 301.79883 1367.9707 L 501.79883 1367.9707 L 501.79883 1267.9707 L 301.79883 1267.9707 z M 701.79883 1267.9707 L 701.79883 1367.9707 L 901.79883 1367.9707 L 901.79883 1267.9707 L 701.79883 1267.9707 z M 1101.7988 1267.9707 L 1101.7988 1367.9707 L 1301.7988 1367.9707 L 1301.7988 1267.9707 L 1101.7988 1267.9707 z " />
</svg>
