<?xml version="1.0" encoding="UTF-8" standalone="no"?>
<svg
   width="1536"
   height="1536"
   version="1.1"
   id="svg4"
   sodipodi:docname="Threat.svg"
   inkscape:version="1.2.2 (1:1.2.2+202212051550+b0a8486541)"
   xmlns:inkscape="http://www.inkscape.org/namespaces/inkscape"
   xmlns:sodipodi="http://sodipodi.sourceforge.net/DTD/sodipodi-0.dtd"
   xmlns="http://www.w3.org/2000/svg"
   xmlns:svg="http://www.w3.org/2000/svg">
  <defs
     id="defs8" />
  <sodipodi:namedview
     id="namedview6"
     pagecolor="#505050"
     bordercolor="#ffffff"
     borderopacity="1"
     inkscape:showpageshadow="0"
     inkscape:pageopacity="0"
     inkscape:pagecheckerboard="1"
     inkscape:deskcolor="#505050"
     showgrid="false"
     inkscape:zoom="0.40373219"
     inkscape:cx="707.15193"
     inkscape:cy="875.58041"
     inkscape:window-width="1887"
     inkscape:window-height="1056"
     inkscape:window-x="33"
     inkscape:window-y="0"
     inkscape:window-maximized="1"
     inkscape:current-layer="svg4" />
  <path
     d="m 1537.4996,875.62497 c 0,33.6328 -27.8672,61.49998 -61.5,61.49998 h -215.2499 c 0,120.11715 -25.9453,210.44525 -64.3828,278.67185 l 199.8749,200.8358 c 24.0234,24.0235 24.0234,62.461 0,86.4844 -11.5312,12.4922 -27.8672,18.2578 -43.2422,18.2578 -15.375,0 -31.7109,-5.7656 -43.2421,-18.2578 l -190.2656,-189.3046 c 0,0 -125.88279,115.3124 -289.24212,115.3124 V 568.12505 H 707.24981 v 860.99975 c -173.92964,0 -300.77336,-126.8437 -300.77336,-126.8437 l -175.85151,198.914 c -12.49219,13.4531 -28.82812,20.1797 -46.12499,20.1797 -14.41406,0 -28.82812,-4.8047 -41.3203,-15.375 -24.98437,-23.0625 -26.90624,-61.5 -4.80469,-87.4453 L 332.48429,1200.4218 C 298.85148,1134.1171 276.74993,1048.5937 276.74993,937.12495 H 61.499984 C 27.86718,937.12495 0,909.25777 0,875.62497 0,841.99217 27.86718,814.12499 61.499984,814.12499 H 276.74993 V 531.60944 L 110.50778,365.36729 c -24.023428,-24.02343 -24.023428,-62.46092 0,-86.48435 24.02343,-24.02343 62.46092,-24.02343 86.48435,0 l 166.24215,166.24214 h 811.03102 l 166.2422,-166.24214 c 24.0234,-24.02343 62.4609,-24.02343 86.4843,0 24.0234,24.02343 24.0234,62.46092 0,86.48435 l -166.2421,166.24215 v 282.51555 h 215.2499 c 33.6328,0 61.5,27.86718 61.5,61.49998 z M 1076.2497,322.12512 H 461.24988 c 0,-170.08589 137.41402,-307.49992 307.49991,-307.49992 170.0859,0 307.49991,137.41403 307.49991,307.49992 z"
     id="path2"
     style="stroke-width:0.960937" />
</svg>
