<?xml version="1.0" encoding="UTF-8" standalone="no"?>
<svg
   width="1536"
   height="1536"
   version="1.1"
   id="svg4"
   sodipodi:docname="trash.svg"
   inkscape:version="1.2.2 (1:1.2.2+202212051550+b0a8486541)"
   xmlns:inkscape="http://www.inkscape.org/namespaces/inkscape"
   xmlns:sodipodi="http://sodipodi.sourceforge.net/DTD/sodipodi-0.dtd"
   xmlns="http://www.w3.org/2000/svg"
   xmlns:svg="http://www.w3.org/2000/svg">
  <defs
     id="defs8" />
  <sodipodi:namedview
     id="namedview6"
     pagecolor="#505050"
     bordercolor="#ffffff"
     borderopacity="1"
     inkscape:showpageshadow="0"
     inkscape:pageopacity="0"
     inkscape:pagecheckerboard="1"
     inkscape:deskcolor="#505050"
     showgrid="false"
     inkscape:zoom="0.28548177"
     inkscape:cx="-54.294185"
     inkscape:cy="989.5553"
     inkscape:window-width="1887"
     inkscape:window-height="1056"
     inkscape:window-x="33"
     inkscape:window-y="0"
     inkscape:window-maximized="1"
     inkscape:current-layer="svg4" />
  <path
     d="M 512,1248 V 544 c 0,-18 -14,-32 -32,-32 h -64 c -18,0 -32,14 -32,32 v 704 c 0,18 14,32 32,32 h 64 c 18,0 32,-14 32,-32 z m 256,0 V 544 c 0,-18 -14,-32 -32,-32 h -64 c -18,0 -32,14 -32,32 v 704 c 0,18 14,32 32,32 h 64 c 18,0 32,-14 32,-32 z m 256,0 V 544 c 0,-18 -14,-32 -32,-32 h -64 c -18,0 -32,14 -32,32 v 704 c 0,18 14,32 32,32 h 64 c 18,0 32,-14 32,-32 z M 480,256 H 928 L 880,139 c -3,-4 -12,-10 -17,-11 H 546 c -6,1 -14,7 -17,11 z m 928,32 v 64 c 0,18 -14,32 -32,32 h -96 v 948 c 0,110 -72,204 -160,204 H 288 c -88,0 -160,-90 -160,-200 V 384 H 32 C 14,384 0,370 0,352 V 288 C 0,270 14,256 32,256 H 341 L 411,89 C 431,40 491,0 544,0 h 320 c 53,0 113,40 133,89 l 70,167 h 309 c 18,0 32,14 32,32 z"
     id="path2" />
</svg>
