<?xml version="1.0" encoding="UTF-8" standalone="no"?>
<svg
   xmlns:dc="http://purl.org/dc/elements/1.1/"
   xmlns:cc="http://creativecommons.org/ns#"
   xmlns:rdf="http://www.w3.org/1999/02/22-rdf-syntax-ns#"
   xmlns:svg="http://www.w3.org/2000/svg"
   xmlns="http://www.w3.org/2000/svg"
   xmlns:sodipodi="http://sodipodi.sourceforge.net/DTD/sodipodi-0.dtd"
   xmlns:inkscape="http://www.inkscape.org/namespaces/inkscape"
   version="1.1"
   id="Calque_1"
   x="0px"
   y="0px"
   viewBox="0 0 287.73063 287.73061"
   xml:space="preserve"
   sodipodi:docname="Jojo le vieux Piranha.svg"
   inkscape:version="1.0.2 (e86c870879, 2021-01-15)"
   width="287.73062"
   height="287.73062"><metadata
   id="metadata18"><rdf:RDF><cc:Work
       rdf:about=""><dc:format>image/svg+xml</dc:format><dc:type
         rdf:resource="http://purl.org/dc/dcmitype/StillImage" /><dc:title></dc:title></cc:Work></rdf:RDF></metadata><defs
   id="defs16" /><sodipodi:namedview
   pagecolor="#ffffff"
   bordercolor="#666666"
   borderopacity="1"
   objecttolerance="10"
   gridtolerance="10"
   guidetolerance="10"
   inkscape:pageopacity="0"
   inkscape:pageshadow="2"
   inkscape:window-width="3440"
   inkscape:window-height="1440"
   id="namedview14"
   showgrid="false"
   inkscape:zoom="1.5222456"
   inkscape:cx="97.359556"
   inkscape:cy="274.83748"
   inkscape:window-x="0"
   inkscape:window-y="0"
   inkscape:window-maximized="0"
   inkscape:current-layer="g11"
   fit-margin-top="4"
   fit-margin-left="4"
   fit-margin-right="4"
   fit-margin-bottom="4"
   lock-margins="false" />
<style
   type="text/css"
   id="style2">
	.st0{fill:#FFFFFF;stroke:#000000;stroke-miterlimit:10;}
	.st1{fill:#7122DA;}
	.st2{fill:#FFFFFF;}
</style>
<g
   id="g11"
   transform="translate(-116.04254,-10.086062)">
	<g
   id="layer4_00000031179014172095924210000000658153629790517127_"
   transform="translate(-143.63833,19.913448)">
		
		
	</g>
	
	
		
	<g
   id="g851"
   transform="translate(38.068565,-0.38182917)"><path
     id="path850-9_00000067925591240414315980000002721978339648227263_"
     class="st0"
     d="m 293.28,125.11 22.8,4.91 c 0.95,0.2 1.39,1.3 0.85,2.11 L 301.30505,153.26373 321.32,149.61 c 0.89,-0.11 1.65,0.66 1.53,1.55 L 318.59979,176.32193 341.37,155.84 c 0.86,-0.7 2.16,-0.14 2.23,0.97 L 343.5607,190.95794 360.1,161.26 c 0.62,-1.17 2.38,-0.87 2.57,0.44 l 4.7478,34.86436 L 381.26,175.1 c 0.65,-0.9 2.05,-0.7 2.41,0.35 l 7.55333,24.5563 L 405.64,179.85 c 0.63,-0.81 1.89,-0.67 2.32,0.26 l 9.18539,20.95603 L 428.96,184.59 c 0.56,-0.7 1.63,-0.68 2.17,0.04 l 9.74121,14.52887 L 448.62,187.83 c 0.59,-0.78 1.78,-0.71 2.28,0.14 l 5.88,10.09 c 0,0 -46.57,12.69 -75.1,10.86 -28.52,-1.84 -71.04,-25.63 -86.31,-45.97 -15.27,-20.34 -2.09,-37.84 -2.09,-37.84 z"
     sodipodi:nodetypes="ccccccccccccccccccccccccccsc"
     transform="translate(-143.63833,19.913448)" /><path
     id="path847-0_00000078730990513209466900000006219650015993824914_"
     class="st0"
     d="m 296.95,104.75 -0.18,-10.87 c 0,0 45.7,-10.59 85.34,-3.87 39.64,6.72 78.04,21.66 78.04,21.66 m 0,0 -10.53,37.75 c -0.35,1.25 -2.12,1.27 -2.5,0.03 l -11.75,-38.42 -12.04,21.65 c -0.56,1 -2.05,0.84 -2.38,-0.25 L 415.61129,107.19699 401.74,130.83 c -0.6,0.93 -2,0.74 -2.33,-0.31 L 392.38422,103.40612 380.82,129.45 c -0.51,1 -1.97,0.92 -2.37,-0.13 L 370.42615,99.932225 358.44,123.54 c -0.49,0.92 -1.81,0.92 -2.3,0 L 343.40364,97.62801 333.05,122.72 c -0.47,0.93 -1.8,0.96 -2.3,0.04 L 317.30305,96.086803 309.79,115.17 c -0.39,0.8 -1.46,0.98 -2.09,0.35 l -10.74,-10.77"
     sodipodi:nodetypes="ccsccccccccccccccccccccccc"
     transform="translate(-143.63833,19.913448)" /><g
     id="body_00000038415697168530627120000006803144230269103806_"
     transform="translate(-174.6416,9.9609222)">
		<path
   id="path827-9_00000012444884889070441930000015617121860041255567_"
   class="st1"
   d="m 334.34,10.41 c 26.18,-12.19 60.38,-4.99 86.97,7.49 38.21,17.94 80.08,51.86 74.98,99.33 -0.49,4.6 -6,9.29 -10.61,8.94 -20.98,-1.6 -144.89,-27.45 -155.14,-14.65 -10.43,13.02 -2.8,50.36 14.39,67.31 20.33,20.05 53.83,25.71 82.68,29.43 22.36,2.88 66.64,-6.28 67.57,2.79 3,29.17 -58.09,32.89 -76.21,32 -7.71,-0.38 -16.74,-1.83 -24.16,1.05 -6.84,2.66 -7.96,8.71 -11.47,14.31 -3,4.79 -28.7,31.39 -35.39,24.23 -3.25,-3.47 6.91,-19.11 8.11,-22.77 4.71,-14.28 -1.13,-21.82 -10.79,-31.97 -24.39,-25.62 -40.95,-58.63 -46.73,-93.55 -6.79,-40.92 -9.63,-102.79 35.8,-123.94 z" />
	</g><ellipse
     id="path829-0_00000096779223395974378290000003327943971989821868_"
     class="st2"
     cx="228.37"
     cy="78.639999"
     rx="31.77"
     ry="31.129999" /><ellipse
     id="path831-4_00000060752015444099753080000009763044342633358212_"
     cx="246.27"
     cy="77.949997"
     rx="13.87"
     ry="13.59" /></g>
</g>
</svg>
